<svg id="visual" viewBox="0 0 900 600" width="900" height="600" xmlns="http://www.w3.org/2000/svg" xmlns:xlink="http://www.w3.org/1999/xlink" version="1.1"><rect x="0" y="0" width="900" height="600" fill="#130757"></rect><defs><linearGradient id="grad1_0" x1="33.3%" y1="0%" x2="100%" y2="100%"><stop offset="20%" stop-color="#460ad2" stop-opacity="1"></stop><stop offset="80%" stop-color="#460ad2" stop-opacity="1"></stop></linearGradient></defs><defs><linearGradient id="grad1_1" x1="33.3%" y1="0%" x2="100%" y2="100%"><stop offset="20%" stop-color="#460ad2" stop-opacity="1"></stop><stop offset="80%" stop-color="#3a0cb8" stop-opacity="1"></stop></linearGradient></defs><defs><linearGradient id="grad1_2" x1="33.3%" y1="0%" x2="100%" y2="100%"><stop offset="20%" stop-color="#2e0c9f" stop-opacity="1"></stop><stop offset="80%" stop-color="#3a0cb8" stop-opacity="1"></stop></linearGradient></defs><defs><linearGradient id="grad1_3" x1="33.3%" y1="0%" x2="100%" y2="100%"><stop offset="20%" stop-color="#2e0c9f" stop-opacity="1"></stop><stop offset="80%" stop-color="#240b86" stop-opacity="1"></stop></linearGradient></defs><defs><linearGradient id="grad1_4" x1="33.3%" y1="0%" x2="100%" y2="100%"><stop offset="20%" stop-color="#1b096e" stop-opacity="1"></stop><stop offset="80%" stop-color="#240b86" stop-opacity="1"></stop></linearGradient></defs><defs><linearGradient id="grad1_5" x1="33.3%" y1="0%" x2="100%" y2="100%"><stop offset="20%" stop-color="#1b096e" stop-opacity="1"></stop><stop offset="80%" stop-color="#130757" stop-opacity="1"></stop></linearGradient></defs><defs><linearGradient id="grad2_0" x1="0%" y1="0%" x2="66.7%" y2="100%"><stop offset="20%" stop-color="#460ad2" stop-opacity="1"></stop><stop offset="80%" stop-color="#460ad2" stop-opacity="1"></stop></linearGradient></defs><defs><linearGradient id="grad2_1" x1="0%" y1="0%" x2="66.7%" y2="100%"><stop offset="20%" stop-color="#3a0cb8" stop-opacity="1"></stop><stop offset="80%" stop-color="#460ad2" stop-opacity="1"></stop></linearGradient></defs><defs><linearGradient id="grad2_2" x1="0%" y1="0%" x2="66.7%" y2="100%"><stop offset="20%" stop-color="#3a0cb8" stop-opacity="1"></stop><stop offset="80%" stop-color="#2e0c9f" stop-opacity="1"></stop></linearGradient></defs><defs><linearGradient id="grad2_3" x1="0%" y1="0%" x2="66.7%" y2="100%"><stop offset="20%" stop-color="#240b86" stop-opacity="1"></stop><stop offset="80%" stop-color="#2e0c9f" stop-opacity="1"></stop></linearGradient></defs><defs><linearGradient id="grad2_4" x1="0%" y1="0%" x2="66.7%" y2="100%"><stop offset="20%" stop-color="#240b86" stop-opacity="1"></stop><stop offset="80%" stop-color="#1b096e" stop-opacity="1"></stop></linearGradient></defs><defs><linearGradient id="grad2_5" x1="0%" y1="0%" x2="66.7%" y2="100%"><stop offset="20%" stop-color="#130757" stop-opacity="1"></stop><stop offset="80%" stop-color="#1b096e" stop-opacity="1"></stop></linearGradient></defs><g transform="translate(900, 0)"><path d="M0 540.8C-35.9 515.3 -71.9 489.7 -109.7 480.6C-147.5 471.6 -187.2 479.1 -228.2 473.9C-269.3 468.7 -311.7 450.9 -332.9 417.5C-354.2 384.1 -354.2 335.2 -383.1 305.5C-412 275.8 -469.9 265.4 -487.3 234.7C-504.6 203.9 -481.4 152.9 -483.6 110.4C-485.7 67.9 -513.3 33.9 -540.8 0L0 0Z" fill="#170863"></path><path d="M0 450.7C-30 429.4 -59.9 408.1 -91.4 400.5C-122.9 393 -156 399.2 -190.2 394.9C-224.4 390.6 -259.8 375.7 -277.5 347.9C-295.1 320.1 -295.1 279.3 -319.2 254.6C-343.4 229.9 -391.6 221.2 -406.1 195.5C-420.5 169.9 -401.2 127.4 -403 92C-404.8 56.6 -427.7 28.3 -450.7 0L0 0Z" fill="#200a7a"></path><path d="M0 360.6C-24 343.5 -47.9 326.5 -73.1 320.4C-98.3 314.4 -124.8 319.4 -152.1 315.9C-179.5 312.5 -207.8 300.6 -222 278.3C-236.1 256.1 -236.1 223.5 -255.4 203.7C-274.7 183.9 -313.3 176.9 -324.8 156.4C-336.4 135.9 -320.9 101.9 -322.4 73.6C-323.8 45.3 -342.2 22.6 -360.6 0L0 0Z" fill="#290c93"></path><path d="M0 270.4C-18 257.6 -35.9 244.8 -54.9 240.3C-73.8 235.8 -93.6 239.5 -114.1 237C-134.6 234.4 -155.9 225.4 -166.5 208.7C-177.1 192.1 -177.1 167.6 -191.5 152.8C-206 137.9 -235 132.7 -243.6 117.3C-252.3 102 -240.7 76.4 -241.8 55.2C-242.9 33.9 -256.6 17 -270.4 0L0 0Z" fill="#340cac"></path><path d="M0 180.3C-12 171.8 -24 163.2 -36.6 160.2C-49.2 157.2 -62.4 159.7 -76.1 158C-89.8 156.2 -103.9 150.3 -111 139.2C-118.1 128 -118.1 111.7 -127.7 101.8C-137.3 91.9 -156.6 88.5 -162.4 78.2C-168.2 68 -160.5 51 -161.2 36.8C-161.9 22.6 -171.1 11.3 -180.3 0L0 0Z" fill="#400bc5"></path><path d="M0 90.1C-6 85.9 -12 81.6 -18.3 80.1C-24.6 78.6 -31.2 79.8 -38 79C-44.9 78.1 -52 75.1 -55.5 69.6C-59 64 -59 55.9 -63.8 50.9C-68.7 46 -78.3 44.2 -81.2 39.1C-84.1 34 -80.2 25.5 -80.6 18.4C-81 11.3 -85.5 5.7 -90.1 0L0 0Z" fill="#460ad2"></path></g><g transform="translate(0, 600)"><path d="M0 -540.8C35.9 -516.5 71.9 -492.2 109.9 -481.6C148 -471.1 188.2 -474.3 221.7 -460.4C255.2 -446.4 282.1 -415.3 309.3 -387.8C336.4 -360.3 364 -336.5 387.8 -309.3C411.6 -282 431.6 -251.2 456.8 -220C482 -188.8 512.4 -157.1 527.3 -120.3C542.1 -83.6 541.5 -41.8 540.8 0L0 0Z" fill="#170863"></path><path d="M0 -450.7C29.9 -430.4 59.9 -410.1 91.6 -401.3C123.3 -392.6 156.8 -395.3 184.8 -383.7C212.7 -372 235 -346.1 257.7 -323.2C280.4 -300.3 303.3 -280.4 323.2 -257.7C343 -235 359.7 -209.3 380.7 -183.3C401.7 -157.3 427 -130.9 439.4 -100.3C451.8 -69.7 451.2 -34.8 450.7 0L0 0Z" fill="#200a7a"></path><path d="M0 -360.6C24 -344.3 47.9 -328.1 73.3 -321.1C98.7 -314.1 125.5 -316.2 147.8 -306.9C170.2 -297.6 188 -276.8 206.2 -258.5C224.3 -240.2 242.7 -224.4 258.5 -206.2C274.4 -188 287.7 -167.5 304.5 -146.7C321.3 -125.8 341.6 -104.7 351.5 -80.2C361.4 -55.7 361 -27.9 360.6 0L0 0Z" fill="#290c93"></path><path d="M0 -270.4C18 -258.2 35.9 -246.1 55 -240.8C74 -235.5 94.1 -237.2 110.9 -230.2C127.6 -223.2 141 -207.6 154.6 -193.9C168.2 -180.2 182 -168.3 193.9 -154.6C205.8 -141 215.8 -125.6 228.4 -110C241 -94.4 256.2 -78.5 263.6 -60.2C271.1 -41.8 270.7 -20.9 270.4 0L0 0Z" fill="#340cac"></path><path d="M0 -180.3C12 -172.2 24 -164.1 36.6 -160.5C49.3 -157 62.7 -158.1 73.9 -153.5C85.1 -148.8 94 -138.4 103.1 -129.3C112.1 -120.1 121.3 -112.2 129.3 -103.1C137.2 -94 143.9 -83.7 152.3 -73.3C160.7 -62.9 170.8 -52.4 175.8 -40.1C180.7 -27.9 180.5 -13.9 180.3 0L0 0Z" fill="#400bc5"></path><path d="M0 -90.1C6 -86.1 12 -82 18.3 -80.3C24.7 -78.5 31.4 -79.1 37 -76.7C42.5 -74.4 47 -69.2 51.5 -64.6C56.1 -60.1 60.7 -56.1 64.6 -51.5C68.6 -47 71.9 -41.9 76.1 -36.7C80.3 -31.5 85.4 -26.2 87.9 -20.1C90.4 -13.9 90.2 -7 90.1 0L0 0Z" fill="#460ad2"></path></g></svg>