<svg id="visual" viewBox="0 0 900 600" width="900" height="600" xmlns="http://www.w3.org/2000/svg" xmlns:xlink="http://www.w3.org/1999/xlink" version="1.1"><g stroke-width="1" stroke-linejoin="bevel"><path d="M450.3 271.2L450 218.6L391 242.7Z" fill="#5737a9" stroke="#5737a9"></path><path d="M450 218.6L390.8 225.6L391 242.7Z" fill="#00182c" stroke="#00182c"></path><path d="M390.8 225.6L374 246.2L391 242.7Z" fill="#6e34b4" stroke="#6e34b4"></path><path d="M382 329.3L430.8 331.7L450.3 271.2Z" fill="#00101c" stroke="#00101c"></path><path d="M390.8 225.6L344.5 234.7L374 246.2Z" fill="#002f6f" stroke="#002f6f"></path><path d="M382 329.3L391 242.7L374 246.2Z" fill="#16337f" stroke="#16337f"></path><path d="M382 329.3L450.3 271.2L391 242.7Z" fill="#5737a9" stroke="#5737a9"></path><path d="M321.5 309.3L382 329.3L374 246.2Z" fill="#41379c" stroke="#41379c"></path><path d="M479.5 342.3L503.3 301.7L450.3 271.2Z" fill="#2b358e" stroke="#2b358e"></path><path d="M450.3 271.2L503.3 301.7L450 218.6Z" fill="#002a5e" stroke="#002a5e"></path><path d="M362.3 150.1L334.5 193.6L390.8 225.6Z" fill="#16337f" stroke="#16337f"></path><path d="M390.8 225.6L334.5 193.6L344.5 234.7Z" fill="#16337f" stroke="#16337f"></path><path d="M430.8 331.7L479.5 342.3L450.3 271.2Z" fill="#00254d" stroke="#00254d"></path><path d="M430.8 375.3L479.5 342.3L430.8 331.7Z" fill="#16337f" stroke="#16337f"></path><path d="M450 218.6L362.3 150.1L390.8 225.6Z" fill="#002f6f" stroke="#002f6f"></path><path d="M362.3 150.1L324.8 182.2L334.5 193.6Z" fill="#002f6f" stroke="#002f6f"></path><path d="M334.5 193.6L258.3 281.7L344.5 234.7Z" fill="#41379c" stroke="#41379c"></path><path d="M382 329.3L413.5 366.8L430.8 331.7Z" fill="#00182c" stroke="#00182c"></path><path d="M299.5 292.2L321.5 309.3L344.5 234.7Z" fill="#00254d" stroke="#00254d"></path><path d="M344.5 234.7L321.5 309.3L374 246.2Z" fill="#6e34b4" stroke="#6e34b4"></path><path d="M382 329.3L370.8 420.8L413.5 366.8Z" fill="#41379c" stroke="#41379c"></path><path d="M413.5 366.8L430.8 375.3L430.8 331.7Z" fill="#00182c" stroke="#00182c"></path><path d="M258.3 281.7L299.5 292.2L344.5 234.7Z" fill="#00101c" stroke="#00101c"></path><path d="M356.5 109.1L343.8 135.1L362.3 150.1Z" fill="#00101c" stroke="#00101c"></path><path d="M362.3 150.1L343.8 135.1L324.8 182.2Z" fill="#2b358e" stroke="#2b358e"></path><path d="M503.3 301.7L522.5 143.6L450 218.6Z" fill="#002f6f" stroke="#002f6f"></path><path d="M450 218.6L463.3 104.6L362.3 150.1Z" fill="#001f3c" stroke="#001f3c"></path><path d="M370.8 420.8L437.3 388.4L413.5 366.8Z" fill="#00254d" stroke="#00254d"></path><path d="M413.5 366.8L437.3 388.4L430.8 375.3Z" fill="#5737a9" stroke="#5737a9"></path><path d="M430.8 375.3L467.8 383.4L479.5 342.3Z" fill="#16337f" stroke="#16337f"></path><path d="M437.3 388.4L467.8 383.4L430.8 375.3Z" fill="#00101c" stroke="#00101c"></path><path d="M479.5 342.3L548.3 331.3L503.3 301.7Z" fill="#2b358e" stroke="#2b358e"></path><path d="M522.5 143.6L463.3 104.6L450 218.6Z" fill="#16337f" stroke="#16337f"></path><path d="M570.5 149.1L526 139.1L522.5 143.6Z" fill="#002a5e" stroke="#002a5e"></path><path d="M522.5 143.6L526 139.1L463.3 104.6Z" fill="#00254d" stroke="#00254d"></path><path d="M524 388.8L548.3 331.3L479.5 342.3Z" fill="#00182c" stroke="#00182c"></path><path d="M614 247.2L570.5 149.1L522.5 143.6Z" fill="#00254d" stroke="#00254d"></path><path d="M299.5 292.2L286.3 300.3L321.5 309.3Z" fill="#002a5e" stroke="#002a5e"></path><path d="M321.5 309.3L292.3 358.8L382 329.3Z" fill="#5737a9" stroke="#5737a9"></path><path d="M258.3 281.7L286.3 300.3L299.5 292.2Z" fill="#00254d" stroke="#00254d"></path><path d="M548.3 331.3L555.8 322.8L503.3 301.7Z" fill="#001f3c" stroke="#001f3c"></path><path d="M463.3 104.6L356.5 109.1L362.3 150.1Z" fill="#002f6f" stroke="#002f6f"></path><path d="M257.3 163.6L258.3 281.7L324.8 182.2Z" fill="#41379c" stroke="#41379c"></path><path d="M324.8 182.2L258.3 281.7L334.5 193.6Z" fill="#6e34b4" stroke="#6e34b4"></path><path d="M280 148.1L324.8 182.2L343.8 135.1Z" fill="#00182c" stroke="#00182c"></path><path d="M614 247.2L522.5 143.6L503.3 301.7Z" fill="#00254d" stroke="#00254d"></path><path d="M526 139.1L527 26.5L463.3 104.6Z" fill="#00254d" stroke="#00254d"></path><path d="M467.8 383.4L524 388.8L479.5 342.3Z" fill="#41379c" stroke="#41379c"></path><path d="M624.5 370.4L605.8 298.2L555.8 322.8Z" fill="#002f6f" stroke="#002f6f"></path><path d="M493 428.9L524 388.8L467.8 383.4Z" fill="#00101c" stroke="#00101c"></path><path d="M356.5 109.1L280 148.1L343.8 135.1Z" fill="#41379c" stroke="#41379c"></path><path d="M254 364.8L292.3 358.8L286.3 300.3Z" fill="#00254d" stroke="#00254d"></path><path d="M286.3 300.3L292.3 358.8L321.5 309.3Z" fill="#002f6f" stroke="#002f6f"></path><path d="M292.3 358.8L370.8 420.8L382 329.3Z" fill="#5737a9" stroke="#5737a9"></path><path d="M437.3 388.4L493 428.9L467.8 383.4Z" fill="#002a5e" stroke="#002a5e"></path><path d="M624.5 370.4L555.8 322.8L548.3 331.3Z" fill="#00101c" stroke="#00101c"></path><path d="M555.8 322.8L614 247.2L503.3 301.7Z" fill="#2b358e" stroke="#2b358e"></path><path d="M605.8 298.2L614 247.2L555.8 322.8Z" fill="#00254d" stroke="#00254d"></path><path d="M280 148.1L257.3 163.6L324.8 182.2Z" fill="#00254d" stroke="#00254d"></path><path d="M631.5 229.2L594 145.1L570.5 149.1Z" fill="#41379c" stroke="#41379c"></path><path d="M570.5 149.1L577.3 86.1L526 139.1Z" fill="#002a5e" stroke="#002a5e"></path><path d="M435 466.4L493 428.9L437.3 388.4Z" fill="#41379c" stroke="#41379c"></path><path d="M524 388.8L624.5 370.4L548.3 331.3Z" fill="#002a5e" stroke="#002a5e"></path><path d="M376.8 25.5L382.5 52.5L404.5 0Z" fill="#001f3c" stroke="#001f3c"></path><path d="M463.3 104.6L382.5 52.5L356.5 109.1Z" fill="#00101c" stroke="#00101c"></path><path d="M278 0L223.8 126.6L280 148.1Z" fill="#00254d" stroke="#00254d"></path><path d="M280 148.1L232.3 152.2L257.3 163.6Z" fill="#16337f" stroke="#16337f"></path><path d="M688 275.7L631.5 229.2L614 247.2Z" fill="#6e34b4" stroke="#6e34b4"></path><path d="M614 247.2L631.5 229.2L570.5 149.1Z" fill="#2b358e" stroke="#2b358e"></path><path d="M258.3 281.7L254 364.8L286.3 300.3Z" fill="#002a5e" stroke="#002a5e"></path><path d="M292.3 358.8L327.3 468.4L370.8 420.8Z" fill="#001f3c" stroke="#001f3c"></path><path d="M178.8 361.3L254 364.8L258.3 281.7Z" fill="#5737a9" stroke="#5737a9"></path><path d="M257.3 163.6L214 213.7L258.3 281.7Z" fill="#5737a9" stroke="#5737a9"></path><path d="M223.8 126.6L232.3 152.2L280 148.1Z" fill="#00254d" stroke="#00254d"></path><path d="M257.3 163.6L232.3 152.2L214 213.7Z" fill="#2b358e" stroke="#2b358e"></path><path d="M588.8 73.5L577.3 86.1L594 145.1Z" fill="#00101c" stroke="#00101c"></path><path d="M594 145.1L577.3 86.1L570.5 149.1Z" fill="#00182c" stroke="#00182c"></path><path d="M409.8 478.5L435 466.4L370.8 420.8Z" fill="#5737a9" stroke="#5737a9"></path><path d="M370.8 420.8L435 466.4L437.3 388.4Z" fill="#00101c" stroke="#00101c"></path><path d="M569.5 460.8L554.8 426.4L540.5 493.9Z" fill="#00254d" stroke="#00254d"></path><path d="M493 428.9L554.8 426.4L524 388.8Z" fill="#00101c" stroke="#00101c"></path><path d="M447 0L382.5 52.5L463.3 104.6Z" fill="#001f3c" stroke="#001f3c"></path><path d="M382.5 52.5L319.3 0L356.5 109.1Z" fill="#001f3c" stroke="#001f3c"></path><path d="M327.3 468.4L409.8 478.5L370.8 420.8Z" fill="#002f6f" stroke="#002f6f"></path><path d="M540.5 493.9L554.8 426.4L493 428.9Z" fill="#41379c" stroke="#41379c"></path><path d="M554.8 426.4L624.5 370.4L524 388.8Z" fill="#2b358e" stroke="#2b358e"></path><path d="M605.8 298.2L688 275.7L614 247.2Z" fill="#001f3c" stroke="#001f3c"></path><path d="M278 0L280 148.1L356.5 109.1Z" fill="#00182c" stroke="#00182c"></path><path d="M232.3 152.2L188.8 199.7L214 213.7Z" fill="#2b358e" stroke="#2b358e"></path><path d="M636.8 56.1L588.8 73.5L594 145.1Z" fill="#16337f" stroke="#16337f"></path><path d="M577.3 86.1L527 26.5L526 139.1Z" fill="#002f6f" stroke="#002f6f"></path><path d="M409.8 478.5L426 482.5L435 466.4Z" fill="#001f3c" stroke="#001f3c"></path><path d="M327.3 468.4L413.5 484.4L409.8 478.5Z" fill="#2b358e" stroke="#2b358e"></path><path d="M409.8 478.5L413.5 484.4L426 482.5Z" fill="#00254d" stroke="#00254d"></path><path d="M588.8 73.5L527 26.5L577.3 86.1Z" fill="#00254d" stroke="#00254d"></path><path d="M154.8 149.1L188.8 199.7L232.3 152.2Z" fill="#002f6f" stroke="#002f6f"></path><path d="M214 213.7L154.5 255.7L258.3 281.7Z" fill="#6e34b4" stroke="#6e34b4"></path><path d="M624.5 370.4L645.5 350.7L605.8 298.2Z" fill="#2b358e" stroke="#2b358e"></path><path d="M254 364.8L327.3 468.4L292.3 358.8Z" fill="#002a5e" stroke="#002a5e"></path><path d="M569.5 460.8L589.3 428.8L554.8 426.4Z" fill="#002f6f" stroke="#002f6f"></path><path d="M554.8 426.4L597 424.8L624.5 370.4Z" fill="#6e34b4" stroke="#6e34b4"></path><path d="M666.3 412.4L691.8 356.3L645.5 350.7Z" fill="#002f6f" stroke="#002f6f"></path><path d="M527 26.5L447 0L463.3 104.6Z" fill="#2b358e" stroke="#2b358e"></path><path d="M447 0L404.5 0L382.5 52.5Z" fill="#002a5e" stroke="#002a5e"></path><path d="M376.8 25.5L319.3 0L382.5 52.5Z" fill="#2b358e" stroke="#2b358e"></path><path d="M404.5 0L398.8 0L376.8 25.5Z" fill="#00254d" stroke="#00254d"></path><path d="M589.3 428.8L597 424.8L554.8 426.4Z" fill="#001f3c" stroke="#001f3c"></path><path d="M691.8 356.3L668.3 324.3L645.5 350.7Z" fill="#002a5e" stroke="#002a5e"></path><path d="M645.5 350.7L668.3 324.3L605.8 298.2Z" fill="#002a5e" stroke="#002a5e"></path><path d="M631.5 229.2L690.8 134.6L594 145.1Z" fill="#41379c" stroke="#41379c"></path><path d="M589.3 428.8L569.5 460.8L597 424.8Z" fill="#5737a9" stroke="#5737a9"></path><path d="M540.5 493.9L493 428.9L435 466.4Z" fill="#16337f" stroke="#16337f"></path><path d="M540.5 493.9L435 466.4L426 482.5Z" fill="#16337f" stroke="#16337f"></path><path d="M668.3 324.3L688 275.7L605.8 298.2Z" fill="#001f3c" stroke="#001f3c"></path><path d="M688 275.7L693 246.6L631.5 229.2Z" fill="#41379c" stroke="#41379c"></path><path d="M329.3 -23.5L319.3 0L376.8 25.5Z" fill="#001f3c" stroke="#001f3c"></path><path d="M527 26.5L530.3 -2.5L447 0Z" fill="#16337f" stroke="#16337f"></path><path d="M447 0L329.3 -23.5L404.5 0Z" fill="#16337f" stroke="#16337f"></path><path d="M404.5 0L329.3 -23.5L398.8 0Z" fill="#00182c" stroke="#00182c"></path><path d="M398.8 0L329.3 -23.5L376.8 25.5Z" fill="#002f6f" stroke="#002f6f"></path><path d="M549.3 0L530.3 -2.5L527 26.5Z" fill="#002f6f" stroke="#002f6f"></path><path d="M153 199.2L154.5 255.7L188.8 199.7Z" fill="#00182c" stroke="#00182c"></path><path d="M188.8 199.7L154.5 255.7L214 213.7Z" fill="#5737a9" stroke="#5737a9"></path><path d="M254 364.8L254.5 481.9L327.3 468.4Z" fill="#5737a9" stroke="#5737a9"></path><path d="M154.5 255.7L178.8 361.3L258.3 281.7Z" fill="#16337f" stroke="#16337f"></path><path d="M440.8 561.9L540.5 493.9L426 482.5Z" fill="#00182c" stroke="#00182c"></path><path d="M598 0L549.3 0L588.8 73.5Z" fill="#001f3c" stroke="#001f3c"></path><path d="M588.8 73.5L549.3 0L527 26.5Z" fill="#002f6f" stroke="#002f6f"></path><path d="M739.5 262.7L701.8 227.7L693 246.6Z" fill="#2b358e" stroke="#2b358e"></path><path d="M693 246.6L701.8 227.7L631.5 229.2Z" fill="#41379c" stroke="#41379c"></path><path d="M154.8 149.1L232.3 152.2L223.8 126.6Z" fill="#5737a9" stroke="#5737a9"></path><path d="M148.5 160.2L153 199.2L188.8 199.7Z" fill="#002a5e" stroke="#002a5e"></path><path d="M690.8 134.6L636.8 56.1L594 145.1Z" fill="#00254d" stroke="#00254d"></path><path d="M636.8 56.1L632.5 48.5L588.8 73.5Z" fill="#001f3c" stroke="#001f3c"></path><path d="M530.3 -2.5L329.3 -23.5L447 0Z" fill="#16337f" stroke="#16337f"></path><path d="M319.3 0L278 0L356.5 109.1Z" fill="#16337f" stroke="#16337f"></path><path d="M284 -25.5L278 0L319.3 0Z" fill="#001f3c" stroke="#001f3c"></path><path d="M701.8 227.7L690.8 134.6L631.5 229.2Z" fill="#00254d" stroke="#00254d"></path><path d="M636.8 56.1L673.3 48.1L632.5 48.5Z" fill="#41379c" stroke="#41379c"></path><path d="M666.3 412.4L645.5 350.7L624.5 370.4Z" fill="#41379c" stroke="#41379c"></path><path d="M668.3 324.3L748 301.3L688 275.7Z" fill="#2b358e" stroke="#2b358e"></path><path d="M688 275.7L739.5 262.7L693 246.6Z" fill="#00101c" stroke="#00101c"></path><path d="M666.3 412.4L624.5 370.4L597 424.8Z" fill="#00101c" stroke="#00101c"></path><path d="M666.3 412.4L597 424.8L702.3 462.5Z" fill="#00101c" stroke="#00101c"></path><path d="M173 85.6L154.8 149.1L223.8 126.6Z" fill="#16337f" stroke="#16337f"></path><path d="M154.8 149.1L148.5 160.2L188.8 199.7Z" fill="#002a5e" stroke="#002a5e"></path><path d="M153 199.2L119.8 209.2L154.5 255.7Z" fill="#001f3c" stroke="#001f3c"></path><path d="M702.3 462.5L597 424.8L569.5 460.8Z" fill="#6e34b4" stroke="#6e34b4"></path><path d="M193 426.4L254.5 481.9L254 364.8Z" fill="#002f6f" stroke="#002f6f"></path><path d="M303.3 544.5L440.8 561.9L413.5 484.4Z" fill="#002f6f" stroke="#002f6f"></path><path d="M413.5 484.4L440.8 561.9L426 482.5Z" fill="#00182c" stroke="#00182c"></path><path d="M146 403.3L193 426.4L178.8 361.3Z" fill="#16337f" stroke="#16337f"></path><path d="M178.8 361.3L193 426.4L254 364.8Z" fill="#00254d" stroke="#00254d"></path><path d="M632.5 48.5L598 0L588.8 73.5Z" fill="#00254d" stroke="#00254d"></path><path d="M549.3 0L598 0L530.3 -2.5Z" fill="#2b358e" stroke="#2b358e"></path><path d="M530.3 -2.5L900 -26.5L329.3 -23.5Z" fill="#2b358e" stroke="#2b358e"></path><path d="M278 0L173 85.6L223.8 126.6Z" fill="#002f6f" stroke="#002f6f"></path><path d="M154.8 149.1L74.3 145.1L148.5 160.2Z" fill="#6e34b4" stroke="#6e34b4"></path><path d="M627.5 0L605.8 0L632.5 48.5Z" fill="#00101c" stroke="#00101c"></path><path d="M632.5 48.5L605.8 0L598 0Z" fill="#002a5e" stroke="#002a5e"></path><path d="M598 0L605.8 0L530.3 -2.5Z" fill="#2b358e" stroke="#2b358e"></path><path d="M329.3 -23.5L284 -25.5L319.3 0Z" fill="#16337f" stroke="#16337f"></path><path d="M119.8 0L118.5 41.5L173 85.6Z" fill="#001f3c" stroke="#001f3c"></path><path d="M81.5 244.6L119.8 209.2L40.3 192.6Z" fill="#002a5e" stroke="#002a5e"></path><path d="M148.5 160.2L119.8 209.2L153 199.2Z" fill="#5737a9" stroke="#5737a9"></path><path d="M154.5 255.7L132.5 346.8L178.8 361.3Z" fill="#6e34b4" stroke="#6e34b4"></path><path d="M60.3 304.3L132.5 346.8L154.5 255.7Z" fill="#41379c" stroke="#41379c"></path><path d="M748 301.3L739.5 262.7L688 275.7Z" fill="#41379c" stroke="#41379c"></path><path d="M701.8 227.7L731.5 153.6L690.8 134.6Z" fill="#00101c" stroke="#00101c"></path><path d="M748 301.3L668.3 324.3L691.8 356.3Z" fill="#5737a9" stroke="#5737a9"></path><path d="M690.8 134.6L673.3 48.1L636.8 56.1Z" fill="#6e34b4" stroke="#6e34b4"></path><path d="M765.5 121.1L673.3 48.1L690.8 134.6Z" fill="#2b358e" stroke="#2b358e"></path><path d="M673.3 48.1L627.5 0L632.5 48.5Z" fill="#00101c" stroke="#00101c"></path><path d="M605.8 0L627.5 0L530.3 -2.5Z" fill="#001f3c" stroke="#001f3c"></path><path d="M303.3 544.5L413.5 484.4L327.3 468.4Z" fill="#5737a9" stroke="#5737a9"></path><path d="M740.5 416.4L718.3 383.8L666.3 412.4Z" fill="#001f3c" stroke="#001f3c"></path><path d="M759.3 180.6L731.5 153.6L701.8 227.7Z" fill="#00254d" stroke="#00254d"></path><path d="M718.3 383.8L721.5 370.3L691.8 356.3Z" fill="#00101c" stroke="#00101c"></path><path d="M132.5 346.8L146 403.3L178.8 361.3Z" fill="#2b358e" stroke="#2b358e"></path><path d="M203.3 506.9L277.5 534.5L254.5 481.9Z" fill="#41379c" stroke="#41379c"></path><path d="M666.3 412.4L718.3 383.8L691.8 356.3Z" fill="#5737a9" stroke="#5737a9"></path><path d="M671.8 549.5L569.5 460.8L540.5 493.9Z" fill="#00254d" stroke="#00254d"></path><path d="M277.5 534.5L327.3 468.4L254.5 481.9Z" fill="#002a5e" stroke="#002a5e"></path><path d="M277.5 534.5L303.3 544.5L327.3 468.4Z" fill="#16337f" stroke="#16337f"></path><path d="M189 486.5L254.5 481.9L193 426.4Z" fill="#16337f" stroke="#16337f"></path><path d="M790.3 307.7L748 301.3L721.5 370.3Z" fill="#00101c" stroke="#00101c"></path><path d="M721.5 370.3L748 301.3L691.8 356.3Z" fill="#001f3c" stroke="#001f3c"></path><path d="M774.3 236.2L759.3 180.6L701.8 227.7Z" fill="#2b358e" stroke="#2b358e"></path><path d="M458.3 575.5L537.3 555.9L540.5 493.9Z" fill="#16337f" stroke="#16337f"></path><path d="M440.8 561.9L458.3 575.5L540.5 493.9Z" fill="#5737a9" stroke="#5737a9"></path><path d="M472.8 600L458.3 575.5L440.8 561.9Z" fill="#00182c" stroke="#00182c"></path><path d="M155.5 473.4L189 486.5L193 426.4Z" fill="#5737a9" stroke="#5737a9"></path><path d="M774.3 236.2L701.8 227.7L739.5 262.7Z" fill="#00254d" stroke="#00254d"></path><path d="M731.5 153.6L765.5 121.1L690.8 134.6Z" fill="#5737a9" stroke="#5737a9"></path><path d="M277.5 534.5L268 570.9L303.3 544.5Z" fill="#00254d" stroke="#00254d"></path><path d="M189 486.5L203.3 506.9L254.5 481.9Z" fill="#002f6f" stroke="#002f6f"></path><path d="M74.3 145.1L119.8 209.2L148.5 160.2Z" fill="#00101c" stroke="#00101c"></path><path d="M119.8 209.2L81.5 244.6L154.5 255.7Z" fill="#16337f" stroke="#16337f"></path><path d="M102.3 412.9L147.5 463.5L146 403.3Z" fill="#00182c" stroke="#00182c"></path><path d="M776.5 232.2L774.3 236.2L790.3 307.7Z" fill="#00182c" stroke="#00182c"></path><path d="M790.3 307.7L774.3 236.2L739.5 262.7Z" fill="#002a5e" stroke="#002a5e"></path><path d="M790.3 307.7L739.5 262.7L748 301.3Z" fill="#16337f" stroke="#16337f"></path><path d="M774.3 236.2L776.5 232.2L759.3 180.6Z" fill="#00101c" stroke="#00101c"></path><path d="M708 508.4L702.3 462.5L671.8 549.5Z" fill="#002a5e" stroke="#002a5e"></path><path d="M718.3 383.8L740.5 416.4L721.5 370.3Z" fill="#16337f" stroke="#16337f"></path><path d="M146 403.3L147.5 463.5L193 426.4Z" fill="#002f6f" stroke="#002f6f"></path><path d="M189 486.5L158.8 547.9L203.3 506.9Z" fill="#41379c" stroke="#41379c"></path><path d="M102.3 412.9L146 403.3L88.8 384.8Z" fill="#002f6f" stroke="#002f6f"></path><path d="M147.5 463.5L155.5 473.4L193 426.4Z" fill="#00182c" stroke="#00182c"></path><path d="M702.3 462.5L740.5 416.4L666.3 412.4Z" fill="#41379c" stroke="#41379c"></path><path d="M458.3 575.5L480 600L537.3 555.9Z" fill="#00101c" stroke="#00101c"></path><path d="M671.8 549.5L702.3 462.5L569.5 460.8Z" fill="#41379c" stroke="#41379c"></path><path d="M300.3 600L472.8 600L440.8 561.9Z" fill="#00182c" stroke="#00182c"></path><path d="M472.8 600L480 600L458.3 575.5Z" fill="#002f6f" stroke="#002f6f"></path><path d="M809.8 168.1L765.5 121.1L759.3 180.6Z" fill="#5737a9" stroke="#5737a9"></path><path d="M759.3 180.6L765.5 121.1L731.5 153.6Z" fill="#001f3c" stroke="#001f3c"></path><path d="M673.3 48.1L721 22.5L627.5 0Z" fill="#00101c" stroke="#00101c"></path><path d="M203.3 506.9L268 570.9L277.5 534.5Z" fill="#6e34b4" stroke="#6e34b4"></path><path d="M303.3 544.5L300.3 600L440.8 561.9Z" fill="#00182c" stroke="#00182c"></path><path d="M274.5 600L268 570.9L176.8 600Z" fill="#002f6f" stroke="#002f6f"></path><path d="M61.3 319.7L80.3 360.4L132.5 346.8Z" fill="#00101c" stroke="#00101c"></path><path d="M147.5 463.5L114.8 476.4L155.5 473.4Z" fill="#41379c" stroke="#41379c"></path><path d="M88.8 384.8L146 403.3L132.5 346.8Z" fill="#00101c" stroke="#00101c"></path><path d="M80.3 360.4L88.8 384.8L132.5 346.8Z" fill="#5737a9" stroke="#5737a9"></path><path d="M173 85.6L74.3 145.1L154.8 149.1Z" fill="#16337f" stroke="#16337f"></path><path d="M81.5 244.6L60.3 304.3L154.5 255.7Z" fill="#41379c" stroke="#41379c"></path><path d="M118.5 41.5L74.3 145.1L173 85.6Z" fill="#00101c" stroke="#00101c"></path><path d="M472.8 600L520.5 601.5L480 600Z" fill="#00182c" stroke="#00182c"></path><path d="M480 600L520.5 601.5L537.3 555.9Z" fill="#002a5e" stroke="#002a5e"></path><path d="M119.8 0L173 85.6L278 0Z" fill="#00182c" stroke="#00182c"></path><path d="M765.5 121.1L721 22.5L673.3 48.1Z" fill="#00254d" stroke="#00254d"></path><path d="M764.5 417.9L790.3 307.7L721.5 370.3Z" fill="#16337f" stroke="#16337f"></path><path d="M776.5 232.2L809.8 168.1L759.3 180.6Z" fill="#16337f" stroke="#16337f"></path><path d="M0 243.6L60.3 304.3L81.5 244.6Z" fill="#00101c" stroke="#00101c"></path><path d="M80.3 360.4L62.5 405.3L88.8 384.8Z" fill="#001f3c" stroke="#001f3c"></path><path d="M60.3 304.3L61.3 319.7L132.5 346.8Z" fill="#00182c" stroke="#00182c"></path><path d="M292 600L300.3 600L268 570.9Z" fill="#6e34b4" stroke="#6e34b4"></path><path d="M268 570.9L300.3 600L303.3 544.5Z" fill="#002f6f" stroke="#002f6f"></path><path d="M472.8 600L300.3 600L520.5 601.5Z" fill="#002a5e" stroke="#002a5e"></path><path d="M274.5 600L292 600L268 570.9Z" fill="#41379c" stroke="#41379c"></path><path d="M300.3 600L292 600L520.5 601.5Z" fill="#002f6f" stroke="#002f6f"></path><path d="M776.5 453.8L764.5 417.9L740.5 416.4Z" fill="#002f6f" stroke="#002f6f"></path><path d="M740.5 416.4L764.5 417.9L721.5 370.3Z" fill="#00182c" stroke="#00182c"></path><path d="M776.5 453.8L740.5 416.4L760.5 481.5Z" fill="#41379c" stroke="#41379c"></path><path d="M671.8 549.5L540.5 493.9L537.3 555.9Z" fill="#16337f" stroke="#16337f"></path><path d="M176.8 600L268 570.9L203.3 506.9Z" fill="#6e34b4" stroke="#6e34b4"></path><path d="M292 600L274.5 600L520.5 601.5Z" fill="#00101c" stroke="#00101c"></path><path d="M118.5 41.5L56.5 134.1L74.3 145.1Z" fill="#002f6f" stroke="#002f6f"></path><path d="M74.3 145.1L40.3 192.6L119.8 209.2Z" fill="#6e34b4" stroke="#6e34b4"></path><path d="M520.5 601.5L580.3 600L537.3 555.9Z" fill="#00254d" stroke="#00254d"></path><path d="M102.3 412.9L114.8 476.4L147.5 463.5Z" fill="#5737a9" stroke="#5737a9"></path><path d="M155.5 473.4L158.8 547.9L189 486.5Z" fill="#001f3c" stroke="#001f3c"></path><path d="M56.5 438.9L114.8 476.4L102.3 412.9Z" fill="#002a5e" stroke="#002a5e"></path><path d="M62.5 405.3L102.3 412.9L88.8 384.8Z" fill="#5737a9" stroke="#5737a9"></path><path d="M56.5 134.1L40.3 192.6L74.3 145.1Z" fill="#41379c" stroke="#41379c"></path><path d="M60.3 304.3L0 300.7L61.3 319.7Z" fill="#00254d" stroke="#00254d"></path><path d="M713 560.5L716 505.9L708 508.4Z" fill="#001f3c" stroke="#001f3c"></path><path d="M708 508.4L716 505.9L702.3 462.5Z" fill="#00254d" stroke="#00254d"></path><path d="M520.5 601.5L588.5 600L580.3 600Z" fill="#002f6f" stroke="#002f6f"></path><path d="M580.3 600L588.5 600L537.3 555.9Z" fill="#00182c" stroke="#00182c"></path><path d="M588.5 600L671.8 549.5L537.3 555.9Z" fill="#002f6f" stroke="#002f6f"></path><path d="M862.8 187.2L809.8 168.1L776.5 232.2Z" fill="#6e34b4" stroke="#6e34b4"></path><path d="M765.5 121.1L794.5 99.5L721 22.5Z" fill="#00254d" stroke="#00254d"></path><path d="M284 -25.5L119.8 0L278 0Z" fill="#5737a9" stroke="#5737a9"></path><path d="M118.5 41.5L91.8 20.5L56.5 134.1Z" fill="#5737a9" stroke="#5737a9"></path><path d="M820.8 112.6L794.5 99.5L765.5 121.1Z" fill="#002a5e" stroke="#002a5e"></path><path d="M0 369.4L62.5 405.3L80.3 360.4Z" fill="#6e34b4" stroke="#6e34b4"></path><path d="M56.5 438.9L62.5 405.3L2.3 410.8Z" fill="#00254d" stroke="#00254d"></path><path d="M119.8 0L91.8 20.5L118.5 41.5Z" fill="#6e34b4" stroke="#6e34b4"></path><path d="M94.8 540.5L158.8 547.9L114.8 476.4Z" fill="#00182c" stroke="#00182c"></path><path d="M114.8 476.4L158.8 547.9L155.5 473.4Z" fill="#6e34b4" stroke="#6e34b4"></path><path d="M900 311.7L900 298.8L790.3 307.7Z" fill="#2b358e" stroke="#2b358e"></path><path d="M872.8 122.5L820.8 112.6L809.8 168.1Z" fill="#00182c" stroke="#00182c"></path><path d="M760.5 481.5L740.5 416.4L702.3 462.5Z" fill="#00101c" stroke="#00101c"></path><path d="M760.5 481.5L702.3 462.5L716 505.9Z" fill="#2b358e" stroke="#2b358e"></path><path d="M783.3 497.9L760.5 481.5L716 505.9Z" fill="#16337f" stroke="#16337f"></path><path d="M862.8 187.2L776.5 232.2L876.8 232.7Z" fill="#2b358e" stroke="#2b358e"></path><path d="M809.8 168.1L820.8 112.6L765.5 121.1Z" fill="#001f3c" stroke="#001f3c"></path><path d="M794.5 99.5L790.3 31.5L721 22.5Z" fill="#00101c" stroke="#00101c"></path><path d="M0 369.4L80.3 360.4L61.3 319.7Z" fill="#6e34b4" stroke="#6e34b4"></path><path d="M62.5 405.3L56.5 438.9L102.3 412.9Z" fill="#00182c" stroke="#00182c"></path><path d="M588.5 600L648.3 600L671.8 549.5Z" fill="#002a5e" stroke="#002a5e"></path><path d="M671.8 549.5L713 560.5L708 508.4Z" fill="#00101c" stroke="#00101c"></path><path d="M520.5 601.5L648.3 600L588.5 600Z" fill="#5737a9" stroke="#5737a9"></path><path d="M820.8 112.6L790.3 31.5L794.5 99.5Z" fill="#002a5e" stroke="#002a5e"></path><path d="M721 22.5L773.8 0L627.5 0Z" fill="#002a5e" stroke="#002a5e"></path><path d="M790.3 31.5L773.8 0L721 22.5Z" fill="#2b358e" stroke="#2b358e"></path><path d="M627.5 0L900 -26.5L530.3 -2.5Z" fill="#5737a9" stroke="#5737a9"></path><path d="M701.8 571.9L713 560.5L671.8 549.5Z" fill="#5737a9" stroke="#5737a9"></path><path d="M0 234.2L81.5 244.6L40.3 192.6Z" fill="#00254d" stroke="#00254d"></path><path d="M0 234.2L0 243.6L81.5 244.6Z" fill="#00101c" stroke="#00101c"></path><path d="M0 234.2L40.3 192.6L0 114.1Z" fill="#00254d" stroke="#00254d"></path><path d="M0 114.1L40.3 192.6L56.5 134.1Z" fill="#002f6f" stroke="#002f6f"></path><path d="M520.5 601.5L664 600L648.3 600Z" fill="#16337f" stroke="#16337f"></path><path d="M648.3 600L664 600L671.8 549.5Z" fill="#001f3c" stroke="#001f3c"></path><path d="M672.8 600L701.8 571.9L671.8 549.5Z" fill="#001f3c" stroke="#001f3c"></path><path d="M0 243.6L0 300.7L60.3 304.3Z" fill="#00254d" stroke="#00254d"></path><path d="M520.5 601.5L672.8 600L664 600Z" fill="#41379c" stroke="#41379c"></path><path d="M664 600L672.8 600L671.8 549.5Z" fill="#5737a9" stroke="#5737a9"></path><path d="M790.3 31.5L782.5 0L773.8 0Z" fill="#001f3c" stroke="#001f3c"></path><path d="M773.8 0L900 -26.5L627.5 0Z" fill="#00254d" stroke="#00254d"></path><path d="M784.3 0L782.5 0L790.3 31.5Z" fill="#001f3c" stroke="#001f3c"></path><path d="M900 0L784.3 0L790.3 31.5Z" fill="#001f3c" stroke="#001f3c"></path><path d="M782.5 0L900 -26.5L773.8 0Z" fill="#002f6f" stroke="#002f6f"></path><path d="M158.8 547.9L176.8 600L203.3 506.9Z" fill="#2b358e" stroke="#2b358e"></path><path d="M274.5 600L176.8 600L520.5 601.5Z" fill="#41379c" stroke="#41379c"></path><path d="M170.5 600L176.8 600L158.8 547.9Z" fill="#5737a9" stroke="#5737a9"></path><path d="M0 300.7L0 329.3L61.3 319.7Z" fill="#2b358e" stroke="#2b358e"></path><path d="M783.3 497.9L795.5 600L867.8 498.4Z" fill="#00254d" stroke="#00254d"></path><path d="M799.8 473.5L783.3 497.9L867.8 498.4Z" fill="#002f6f" stroke="#002f6f"></path><path d="M713 560.5L783.3 497.9L716 505.9Z" fill="#2b358e" stroke="#2b358e"></path><path d="M760.5 481.5L799.8 473.5L776.5 453.8Z" fill="#5737a9" stroke="#5737a9"></path><path d="M776.5 453.8L855.8 462.9L764.5 417.9Z" fill="#00182c" stroke="#00182c"></path><path d="M94.8 540.5L170.5 600L158.8 547.9Z" fill="#6e34b4" stroke="#6e34b4"></path><path d="M176.8 600L170.5 600L520.5 601.5Z" fill="#002a5e" stroke="#002a5e"></path><path d="M783.3 497.9L799.8 473.5L760.5 481.5Z" fill="#5737a9" stroke="#5737a9"></path><path d="M876.8 232.7L776.5 232.2L790.3 307.7Z" fill="#41379c" stroke="#41379c"></path><path d="M820.8 112.6L900 0L790.3 31.5Z" fill="#001f3c" stroke="#001f3c"></path><path d="M0 329.3L0 369.4L61.3 319.7Z" fill="#5737a9" stroke="#5737a9"></path><path d="M44.3 546.5L94.8 540.5L114.8 476.4Z" fill="#002a5e" stroke="#002a5e"></path><path d="M44.3 546.5L114.8 476.4L56.5 438.9Z" fill="#6e34b4" stroke="#6e34b4"></path><path d="M9.3 58.5L0 114.1L56.5 134.1Z" fill="#00101c" stroke="#00101c"></path><path d="M900 234.2L876.8 232.7L900 298.8Z" fill="#41379c" stroke="#41379c"></path><path d="M0 329.3L-25.7 296.2L0 369.4Z" fill="#2b358e" stroke="#2b358e"></path><path d="M0 300.7L-25.7 296.2L0 329.3Z" fill="#2b358e" stroke="#2b358e"></path><path d="M0 243.6L-25.7 296.2L0 300.7Z" fill="#002f6f" stroke="#002f6f"></path><path d="M0 234.2L-25.7 296.2L0 243.6Z" fill="#001f3c" stroke="#001f3c"></path><path d="M0 114.1L-25.7 296.2L0 234.2Z" fill="#41379c" stroke="#41379c"></path><path d="M0 369.4L2.3 410.8L62.5 405.3Z" fill="#00101c" stroke="#00101c"></path><path d="M-25.7 296.2L2.3 410.8L0 369.4Z" fill="#00254d" stroke="#00254d"></path><path d="M0 58.5L9.3 58.5L0 0Z" fill="#6e34b4" stroke="#6e34b4"></path><path d="M91.8 20.5L9.3 58.5L56.5 134.1Z" fill="#002a5e" stroke="#002a5e"></path><path d="M900 166.1L872.8 122.5L862.8 187.2Z" fill="#001f3c" stroke="#001f3c"></path><path d="M862.8 187.2L872.8 122.5L809.8 168.1Z" fill="#002a5e" stroke="#002a5e"></path><path d="M28.5 0L9.3 58.5L91.8 20.5Z" fill="#2b358e" stroke="#2b358e"></path><path d="M9.3 58.5L0 58.5L0 114.1Z" fill="#5737a9" stroke="#5737a9"></path><path d="M0 114.1L0 58.5L-25.7 296.2Z" fill="#6e34b4" stroke="#6e34b4"></path><path d="M284 -25.5L28.5 0L119.8 0Z" fill="#6e34b4" stroke="#6e34b4"></path><path d="M119.8 0L28.5 0L91.8 20.5Z" fill="#002a5e" stroke="#002a5e"></path><path d="M-25.7 296.2L0 445.9L2.3 410.8Z" fill="#5737a9" stroke="#5737a9"></path><path d="M2.3 410.8L0 445.9L56.5 438.9Z" fill="#00254d" stroke="#00254d"></path><path d="M-25.7 296.2L0 449.8L0 445.9Z" fill="#002f6f" stroke="#002f6f"></path><path d="M0 445.9L0 449.8L56.5 438.9Z" fill="#00254d" stroke="#00254d"></path><path d="M900 298.8L876.8 232.7L790.3 307.7Z" fill="#002a5e" stroke="#002a5e"></path><path d="M876.8 232.7L900 234.2L862.8 187.2Z" fill="#16337f" stroke="#16337f"></path><path d="M284 -25.5L18.3 0L28.5 0Z" fill="#00182c" stroke="#00182c"></path><path d="M28.5 0L18.3 0L9.3 58.5Z" fill="#00254d" stroke="#00254d"></path><path d="M900 311.7L790.3 307.7L900 320.3Z" fill="#5737a9" stroke="#5737a9"></path><path d="M900 320.3L790.3 307.7L900 394.4Z" fill="#5737a9" stroke="#5737a9"></path><path d="M900 394.4L790.3 307.7L764.5 417.9Z" fill="#00254d" stroke="#00254d"></path><path d="M900 234.2L900 166.6L862.8 187.2Z" fill="#002f6f" stroke="#002f6f"></path><path d="M900 166.6L900 166.1L862.8 187.2Z" fill="#00254d" stroke="#00254d"></path><path d="M867.8 498.4L855.8 462.9L799.8 473.5Z" fill="#2b358e" stroke="#2b358e"></path><path d="M799.8 473.5L855.8 462.9L776.5 453.8Z" fill="#2b358e" stroke="#2b358e"></path><path d="M783.3 497.9L713 560.5L793.8 600Z" fill="#41379c" stroke="#41379c"></path><path d="M0 449.8L44.3 546.5L56.5 438.9Z" fill="#002a5e" stroke="#002a5e"></path><path d="M94.8 540.5L0 600L170.5 600Z" fill="#41379c" stroke="#41379c"></path><path d="M284 -25.5L0 0L18.3 0Z" fill="#002f6f" stroke="#002f6f"></path><path d="M18.3 0L0 0L9.3 58.5Z" fill="#00101c" stroke="#00101c"></path><path d="M0 58.5L0 0L-25.7 296.2Z" fill="#002f6f" stroke="#002f6f"></path><path d="M855.8 462.9L900 394.4L764.5 417.9Z" fill="#16337f" stroke="#16337f"></path><path d="M900 394.4L920.8 350.3L900 320.3Z" fill="#6e34b4" stroke="#6e34b4"></path><path d="M900 320.3L926.8 336.8L900 311.7Z" fill="#6e34b4" stroke="#6e34b4"></path><path d="M900 311.7L926.8 336.8L900 298.8Z" fill="#41379c" stroke="#41379c"></path><path d="M900 298.8L926.8 336.8L900 234.2Z" fill="#00101c" stroke="#00101c"></path><path d="M900 234.2L926.8 336.8L900 166.6Z" fill="#002a5e" stroke="#002a5e"></path><path d="M900 166.6L926.8 336.8L900 166.1Z" fill="#002a5e" stroke="#002a5e"></path><path d="M920.8 350.3L926.8 336.8L900 320.3Z" fill="#41379c" stroke="#41379c"></path><path d="M900 394.4L900 471.9L920.8 350.3Z" fill="#2b358e" stroke="#2b358e"></path><path d="M920.8 350.3L900 471.9L926.8 336.8Z" fill="#001f3c" stroke="#001f3c"></path><path d="M855.8 462.9L900 471.9L900 394.4Z" fill="#002f6f" stroke="#002f6f"></path><path d="M793.8 600L713 560.5L701.8 571.9Z" fill="#5737a9" stroke="#5737a9"></path><path d="M520.5 601.5L793.8 600L672.8 600Z" fill="#00182c" stroke="#00182c"></path><path d="M672.8 600L793.8 600L701.8 571.9Z" fill="#2b358e" stroke="#2b358e"></path><path d="M520.5 601.5L795.5 600L793.8 600Z" fill="#2b358e" stroke="#2b358e"></path><path d="M793.8 600L795.5 600L783.3 497.9Z" fill="#16337f" stroke="#16337f"></path><path d="M900 553.5L900 471.9L867.8 498.4Z" fill="#001f3c" stroke="#001f3c"></path><path d="M867.8 498.4L900 471.9L855.8 462.9Z" fill="#00182c" stroke="#00182c"></path><path d="M926.8 336.8L900 0L900 166.1Z" fill="#00182c" stroke="#00182c"></path><path d="M900 166.1L900 0L872.8 122.5Z" fill="#00182c" stroke="#00182c"></path><path d="M872.8 122.5L900 0L820.8 112.6Z" fill="#002f6f" stroke="#002f6f"></path><path d="M784.3 0L900 -26.5L782.5 0Z" fill="#5737a9" stroke="#5737a9"></path><path d="M329.3 -23.5L900 -26.5L284 -25.5Z" fill="#16337f" stroke="#16337f"></path><path d="M926.8 336.8L900 -26.5L900 0Z" fill="#00101c" stroke="#00101c"></path><path d="M900 0L900 -26.5L784.3 0Z" fill="#6e34b4" stroke="#6e34b4"></path><path d="M-6.7 600L0 593.5L0 449.8Z" fill="#00182c" stroke="#00182c"></path><path d="M0 449.8L0 593.5L44.3 546.5Z" fill="#001f3c" stroke="#001f3c"></path><path d="M44.3 546.5L0 600L94.8 540.5Z" fill="#2b358e" stroke="#2b358e"></path><path d="M-6.7 600L0 600L0 593.5Z" fill="#00182c" stroke="#00182c"></path><path d="M0 593.5L0 600L44.3 546.5Z" fill="#5737a9" stroke="#5737a9"></path><path d="M170.5 600L0 600L520.5 601.5Z" fill="#5737a9" stroke="#5737a9"></path><path d="M-25.7 296.2L-6.7 600L0 449.8Z" fill="#002a5e" stroke="#002a5e"></path><path d="M0 600L-6.7 600L520.5 601.5Z" fill="#001f3c" stroke="#001f3c"></path><path d="M900 471.9L900 553.5L926.8 336.8Z" fill="#5737a9" stroke="#5737a9"></path><path d="M795.5 600L900 553.5L867.8 498.4Z" fill="#5737a9" stroke="#5737a9"></path><path d="M520.5 601.5L900 600L795.5 600Z" fill="#41379c" stroke="#41379c"></path><path d="M795.5 600L900 600L900 553.5Z" fill="#002a5e" stroke="#002a5e"></path><path d="M900 553.5L900 600L926.8 336.8Z" fill="#001f3c" stroke="#001f3c"></path></g></svg>